<svg width="40" height="40" viewBox="0 0 40 40" fill="none" xmlns="http://www.w3.org/2000/svg">
<path d="M32.2064 22.7029C31.7263 21.6053 31.1038 20.6767 30.3283 19.9113C29.9526 19.5396 29.548 19.1983 29.1183 18.8906C29.1636 19.2579 29.1858 19.6277 29.185 19.9977C29.1846 21.5772 28.7825 23.1307 28.0163 24.512C27.2502 25.8932 26.1453 27.0569 24.8055 27.8935C24.7953 29.3683 24.3609 30.4405 23.504 31.1245C22.6364 31.8137 21.4169 32.1605 19.855 32.1605C18.6965 32.1605 17.6927 31.999 16.8437 31.6759C16.0611 31.3828 15.3047 31.0241 14.5825 30.6037C13.9287 30.2103 13.3418 29.8532 12.8218 29.5322C12.301 29.2051 11.7903 29.0469 11.2803 29.0469C10.8961 29.0443 10.5178 29.1417 10.1827 29.3296C9.85666 29.4996 9.58323 29.7555 9.39194 30.0695L6.83984 34.0997C7.61483 34.8656 8.4804 35.5341 9.41735 36.0903C10.4258 36.6942 11.4845 37.21 12.5817 37.6318C13.7109 38.0676 14.8754 38.4057 16.0624 38.6424C17.2272 38.8756 18.4118 38.9953 19.5997 39C21.708 39 23.5913 38.6801 25.2495 38.0402C26.9077 37.4004 28.3027 36.5243 29.4346 35.4119C30.5638 34.3031 31.4471 32.9691 32.0273 31.4968C32.6283 29.9604 32.9316 28.3237 32.921 26.6739C32.921 25.122 32.6828 23.7983 32.2064 22.7029Z" fill="#10312B"/>
<path d="M30.149 3.30697C29.2819 2.81211 28.3734 2.39365 27.4337 2.05633C26.4334 1.70061 25.403 1.43594 24.355 1.26555C23.255 1.0863 22.142 0.997505 21.0274 1.00005C18.986 1.00005 17.1741 1.30959 15.5917 1.92867C14.0093 2.54774 12.6737 3.37811 11.585 4.41978C10.5428 5.40003 9.71121 6.58228 9.14086 7.89444C8.5705 9.2066 8.27337 10.6212 8.26758 12.0519C8.26758 13.7872 8.50259 15.2468 8.98214 16.4257C9.40558 17.4843 9.94823 18.3826 10.6101 19.1207C10.7725 17.4339 11.3922 15.8233 12.4022 14.4625C13.4122 13.1018 14.7743 12.0423 16.3418 11.3983C16.3825 10.3268 16.7756 9.46427 17.5156 8.82085C18.307 8.13233 19.5117 7.7887 21.1297 7.78997C22.0613 7.78997 22.8948 7.91256 23.6303 8.15773C24.3017 8.38208 24.9538 8.66034 25.5803 8.9898C26.1519 9.29595 26.6622 9.57119 27.111 9.81551C27.5601 10.0658 27.9837 10.1884 28.3769 10.1884C28.8158 10.1884 29.1785 10.0861 29.4567 9.88221C29.7349 9.67832 30.0074 9.37407 30.2627 8.96312L32.4064 4.95713C31.7178 4.32462 30.9607 3.77113 30.149 3.30697Z" fill="#10312B"/>
<path d="M26.1231 19.9974C26.1248 21.5289 25.5637 23.0077 24.5463 24.1526C23.5289 25.2974 22.1264 26.0285 20.6052 26.2068C19.0841 26.3851 17.5504 25.9982 16.2959 25.1197C15.0414 24.2411 14.1534 22.9322 13.8009 21.4417C13.6896 20.9684 13.6346 20.4836 13.637 19.9974C13.6287 19.172 13.7841 18.3532 14.0942 17.5883C14.4043 16.8233 14.8629 16.1275 15.4436 15.5409C16.0243 14.9543 16.7155 14.4887 17.4773 14.1709C18.2391 13.8531 19.0563 13.6895 19.8817 13.6895C20.7071 13.6895 21.5243 13.8531 22.286 14.1709C23.0478 14.4887 23.739 14.9543 24.3197 15.5409C24.9004 16.1275 25.3591 16.8233 25.6692 17.5883C25.9792 18.3532 26.1346 19.172 26.1263 19.9974H26.1231Z" fill="#00CE7C"/>
</svg>
