<svg width="14" height="14" viewBox="0 0 14 14" fill="none" xmlns="http://www.w3.org/2000/svg">
<path d="M11.0213 10.0777L13.8767 12.9323L12.9333 13.8757L10.0787 11.0203C9.01648 11.8718 7.69532 12.3349 6.33398 12.333C3.02198 12.333 0.333984 9.64501 0.333984 6.33301C0.333984 3.02101 3.02198 0.333008 6.33398 0.333008C9.64598 0.333008 12.334 3.02101 12.334 6.33301C12.3359 7.69434 11.8728 9.0155 11.0213 10.0777ZM9.68398 9.58301C10.5301 8.71293 11.0026 7.54663 11.0007 6.33301C11.0007 3.75434 8.91198 1.66634 6.33398 1.66634C3.75532 1.66634 1.66732 3.75434 1.66732 6.33301C1.66732 8.91101 3.75532 10.9997 6.33398 10.9997C7.5476 11.0016 8.71391 10.5291 9.58398 9.68301L9.68398 9.58301Z" fill="#00CE7C"/>
</svg>
