<svg width="14" height="15" viewBox="0 0 14 15" fill="none" xmlns="http://www.w3.org/2000/svg">
<path d="M13.6673 12.333H0.333984V10.9997H1.00065V6.35367C1.00065 3.02834 3.68732 0.333008 7.00065 0.333008C10.314 0.333008 13.0007 3.02834 13.0007 6.35367V10.9997H13.6673V12.333ZM2.33398 10.9997H11.6673V6.35367C11.6673 3.76501 9.57798 1.66634 7.00065 1.66634C4.42332 1.66634 2.33398 3.76501 2.33398 6.35367V10.9997ZM5.33398 12.9997H8.66732C8.66732 13.4417 8.49172 13.8656 8.17916 14.1782C7.8666 14.4907 7.44268 14.6663 7.00065 14.6663C6.55862 14.6663 6.1347 14.4907 5.82214 14.1782C5.50958 13.8656 5.33398 13.4417 5.33398 12.9997Z" fill="black"/>
</svg>
