<svg width="14" height="13" viewBox="0 0 14 13" fill="none" xmlns="http://www.w3.org/2000/svg">
<path d="M3.30398 10.6667L0.333984 13V0.666667C0.333984 0.489856 0.404222 0.320286 0.529246 0.195262C0.654271 0.0702379 0.82384 0 1.00065 0H13.0007C13.1775 0 13.347 0.0702379 13.4721 0.195262C13.5971 0.320286 13.6673 0.489856 13.6673 0.666667V10C13.6673 10.1768 13.5971 10.3464 13.4721 10.4714C13.347 10.5964 13.1775 10.6667 13.0007 10.6667H3.30398ZM2.84265 9.33333H12.334V1.33333H1.66732V10.2567L2.84265 9.33333ZM6.33398 4.66667H7.66732V6H6.33398V4.66667ZM3.66732 4.66667H5.00065V6H3.66732V4.66667ZM9.00065 4.66667H10.334V6H9.00065V4.66667Z" fill="#00CE7C"/>
</svg>
