<svg width="14" height="14" viewBox="0 0 14 14" fill="none" xmlns="http://www.w3.org/2000/svg">
<path d="M5.00065 0.666992V2.00033H9.00065V0.666992H10.334V2.00033H13.0007C13.1775 2.00033 13.347 2.07056 13.4721 2.19559C13.5971 2.32061 13.6673 2.49018 13.6673 2.66699V13.3337C13.6673 13.5105 13.5971 13.68 13.4721 13.8051C13.347 13.9301 13.1775 14.0003 13.0007 14.0003H1.00065C0.82384 14.0003 0.654271 13.9301 0.529246 13.8051C0.404222 13.68 0.333984 13.5105 0.333984 13.3337V2.66699C0.333984 2.49018 0.404222 2.32061 0.529246 2.19559C0.654271 2.07056 0.82384 2.00033 1.00065 2.00033H3.66732V0.666992H5.00065ZM12.334 6.66699H1.66732V12.667H12.334V6.66699ZM9.02465 7.42432L9.96732 8.36699L6.66732 11.667L4.30998 9.30966L5.25398 8.36699L6.66798 9.78166L9.02532 7.42432H9.02465ZM3.66732 3.33366H1.66732V5.33366H12.334V3.33366H10.334V4.00033H9.00065V3.33366H5.00065V4.00033H3.66732V3.33366Z" fill="#00CE7C"/>
</svg>
